# xmcd
#
# Track frame offsets: 
#        150
#        12320
#        25022
#        35807
#        47699
#        60338
#        71689
#        81675
#        95602
#        107379
#        120521
#        133072
#        144804
#        159286
#        175879
#        192483
#        208178
#        219391
#        234402
#        252109
#
# Disc length: 3516 seconds
#
# Revision: 0
# Processed by: cddbd v1.5.2PL0 Copyright (c) Steve Scherf et al.
# Submitted via: ExactAudioCopy v1.3
#
DISCID=140dba14
DTITLE=Diverse Künstler - Classic Country
DYEAR=1998
DGENRE=Country
TTITLE0=Glen Campbell - Galveston
TTITLE1=Charley Pride - Crystal Chandeliers
TTITLE2=Billie Jo Spears - Paper Roses
TTITLE3=Willie Nelson - Funny How Time Slips Away
TTITLE4=Conway Twitty - Can't Stop Loving You
TTITLE5=Patsy Cline - The Heart You Break May Be Your Own
TTITLE6=George Hamilton IV - Abiline
TTITLE7=Bobbie Gentry - Raindrops Keep Falling On My Head
TTITLE8=Tennessee Ernie Ford - Sixteen Tons
TTITLE9=Dolly Parton - I Will Always Love You
TTITLE10=Loretta Lynn - Behind Closed Doors
TTITLE11=Don McLean - Since I Don't Have You
TTITLE12=Crystal Gayle - Cry Me A River
TTITLE13=Don Williams - Love Is On A Rol
TTITLE14=Lee Greenwood - Ring On Her Finger, Time On Her Hands
TTITLE15=Hal Ketchum - I Know Where Love Lives
TTITLE16=Waylon Jennings - Sally Was A Good Old Girl
TTITLE17=The Bellamy Brothers - Dancin' Cowboys
TTITLE18=Hank Williams Jr. - All My Rowdy Friends (Have Settled Down)
TTITLE19=The Everly Brothers - d Hearted Woman
EXTD=
EXTT0=
EXTT1=
EXTT2=
EXTT3=
EXTT4=
EXTT5=
EXTT6=
EXTT7=
EXTT8=
EXTT9=
EXTT10=
EXTT11=
EXTT12=
EXTT13=
EXTT14=
EXTT15=
EXTT16=
EXTT17=
EXTT18=
EXTT19=
PLAYORDER=
